<svg width="817" height="191" viewBox="0 0 817 191" fill="none" xmlns="http://www.w3.org/2000/svg">
<path fill-rule="evenodd" clip-rule="evenodd" d="M672 191H16C7.16345 191 0 183.837 0 175V133C0 124.164 7.16345 117 16 117H672C674.426 116.993 676.82 117.543 679 118.608V189.391C676.821 190.456 674.426 191.007 672 191Z" fill="#323234"/>
<path d="M496.528 163.061L501.928 147.509H504.133L496.237 169.145L495.827 170.102C494.813 172.346 493.247 173.469 491.127 173.469C490.638 173.469 490.113 173.389 489.555 173.229L489.538 171.537L490.598 171.64C491.6 171.64 492.409 171.389 493.024 170.888C493.651 170.398 494.181 169.549 494.614 168.342L495.52 165.846L488.547 147.509H490.786L496.528 163.061ZM505.91 156.481C505.91 154.704 506.252 153.103 506.936 151.679C507.631 150.255 508.605 149.15 509.858 148.364C511.123 147.566 512.552 147.167 514.147 147.167C516.608 147.167 518.602 148.033 520.129 149.765C521.656 151.485 522.419 153.77 522.419 156.618V157.045C522.419 158.834 522.071 160.446 521.376 161.882C520.693 163.306 519.724 164.405 518.471 165.18C517.218 165.955 515.788 166.342 514.182 166.342C511.732 166.342 509.738 165.482 508.2 163.761C506.674 162.03 505.91 159.74 505.91 156.891V156.481ZM507.961 157.045C507.961 159.255 508.531 161.073 509.67 162.497C510.821 163.91 512.325 164.616 514.182 164.616C516.027 164.616 517.52 163.91 518.659 162.497C519.81 161.073 520.385 159.198 520.385 156.874V156.481C520.385 155.068 520.123 153.775 519.599 152.602C519.075 151.428 518.34 150.523 517.395 149.885C516.449 149.235 515.367 148.91 514.147 148.91C512.325 148.91 510.838 149.628 509.687 151.064C508.536 152.488 507.961 154.356 507.961 156.669V157.045ZM538.552 163.659C537.321 165.448 535.356 166.342 532.656 166.342C530.685 166.342 529.187 165.772 528.161 164.633C527.136 163.482 526.612 161.785 526.589 159.54V147.509H528.623V159.284C528.623 162.804 530.047 164.565 532.895 164.565C535.857 164.565 537.731 163.34 538.518 160.89V147.509H540.568V166H538.586L538.552 163.659ZM554.445 149.252C554.012 149.172 553.551 149.133 553.061 149.133C551.785 149.133 550.703 149.491 549.814 150.209C548.937 150.916 548.31 151.947 547.934 153.302V166H545.9V147.509H547.9L547.934 150.448C549.016 148.261 550.754 147.167 553.146 147.167C553.716 147.167 554.166 147.241 554.497 147.389L554.445 149.252ZM559.641 147.509L559.709 150.671C560.404 149.531 561.27 148.665 562.307 148.073C563.343 147.469 564.488 147.167 565.742 147.167C567.724 147.167 569.2 147.726 570.168 148.842C571.136 149.959 571.626 151.633 571.638 153.866V166H569.604V153.849C569.593 152.197 569.239 150.967 568.544 150.158C567.861 149.349 566.761 148.945 565.246 148.945C563.981 148.945 562.859 149.343 561.879 150.141C560.911 150.927 560.193 151.992 559.726 153.337V166H557.692V147.509H559.641ZM588.608 166C588.403 165.419 588.272 164.559 588.215 163.42C587.497 164.354 586.58 165.077 585.463 165.59C584.358 166.091 583.185 166.342 581.943 166.342C580.166 166.342 578.724 165.846 577.619 164.855C576.525 163.864 575.979 162.611 575.979 161.095C575.979 159.295 576.725 157.871 578.217 156.823C579.721 155.775 581.812 155.251 584.489 155.251H588.198V153.149C588.198 151.827 587.788 150.79 586.967 150.038C586.158 149.275 584.973 148.893 583.413 148.893C581.988 148.893 580.809 149.258 579.875 149.987C578.941 150.716 578.474 151.594 578.474 152.619L576.423 152.602C576.423 151.132 577.106 149.862 578.474 148.791C579.841 147.708 581.521 147.167 583.515 147.167C585.577 147.167 587.201 147.686 588.386 148.722C589.582 149.748 590.197 151.183 590.231 153.029V161.779C590.231 163.568 590.419 164.906 590.795 165.795V166H588.608ZM582.182 164.531C583.549 164.531 584.768 164.2 585.839 163.539C586.922 162.878 587.708 161.996 588.198 160.89V156.823H584.541C582.501 156.846 580.906 157.222 579.755 157.951C578.605 158.669 578.029 159.66 578.029 160.925C578.029 161.961 578.411 162.822 579.174 163.505C579.949 164.189 580.952 164.531 582.182 164.531ZM597.563 147.509L597.631 150.517C598.315 149.4 599.169 148.563 600.195 148.005C601.22 147.446 602.36 147.167 603.613 147.167C606.529 147.167 608.381 148.364 609.167 150.756C609.828 149.605 610.711 148.722 611.816 148.107C612.921 147.481 614.14 147.167 615.473 147.167C619.438 147.167 621.46 149.332 621.54 153.661V166H619.489V153.815C619.478 152.163 619.119 150.938 618.413 150.141C617.718 149.343 616.578 148.945 614.995 148.945C613.525 148.967 612.283 149.446 611.269 150.38C610.255 151.303 609.691 152.431 609.577 153.764V166H607.526V153.661C607.515 152.078 607.139 150.899 606.398 150.124C605.669 149.338 604.541 148.945 603.015 148.945C601.727 148.945 600.622 149.315 599.699 150.055C598.776 150.785 598.093 151.873 597.648 153.32V166H595.598V147.509H597.563ZM633.896 166.342C632.324 166.342 630.9 165.955 629.624 165.18C628.359 164.405 627.373 163.329 626.667 161.95C625.961 160.56 625.607 159.005 625.607 157.284V156.55C625.607 154.772 625.949 153.171 626.633 151.747C627.328 150.323 628.291 149.207 629.521 148.398C630.751 147.577 632.084 147.167 633.52 147.167C635.764 147.167 637.542 147.936 638.852 149.474C640.174 151.001 640.834 153.092 640.834 155.746V156.891H627.641V157.284C627.641 159.381 628.239 161.13 629.436 162.531C630.643 163.921 632.159 164.616 633.981 164.616C635.075 164.616 636.038 164.417 636.87 164.018C637.713 163.619 638.476 162.981 639.16 162.104L640.441 163.078C638.938 165.254 636.756 166.342 633.896 166.342ZM633.52 148.91C631.982 148.91 630.683 149.474 629.624 150.602C628.575 151.73 627.937 153.246 627.709 155.148H638.801V154.926C638.744 153.149 638.237 151.702 637.28 150.585C636.323 149.469 635.069 148.91 633.52 148.91ZM644.628 164.77C644.628 164.371 644.754 164.035 645.004 163.761C645.266 163.477 645.625 163.334 646.081 163.334C646.537 163.334 646.896 163.477 647.158 163.761C647.42 164.035 647.551 164.371 647.551 164.77C647.551 165.169 647.42 165.499 647.158 165.761C646.896 166.012 646.537 166.137 646.081 166.137C645.625 166.137 645.266 166.012 645.004 165.761C644.754 165.499 644.628 165.169 644.628 164.77ZM657.617 161.745L657.924 163.334L658.334 161.659L662.778 147.509H664.521L668.913 161.54L669.392 163.488L669.785 161.694L673.579 147.509H675.698L670.314 166H668.571L663.82 151.337L663.598 150.329L663.376 151.354L658.71 166H656.967L651.601 147.509H653.703L657.617 161.745ZM691.25 166C691.044 165.419 690.913 164.559 690.856 163.42C690.139 164.354 689.222 165.077 688.105 165.59C687 166.091 685.826 166.342 684.584 166.342C682.807 166.342 681.366 165.846 680.261 164.855C679.167 163.864 678.62 162.611 678.62 161.095C678.62 159.295 679.366 157.871 680.859 156.823C682.363 155.775 684.453 155.251 687.131 155.251H690.839V153.149C690.839 151.827 690.429 150.79 689.609 150.038C688.8 149.275 687.615 148.893 686.054 148.893C684.63 148.893 683.451 149.258 682.517 149.987C681.582 150.716 681.115 151.594 681.115 152.619L679.064 152.602C679.064 151.132 679.748 149.862 681.115 148.791C682.482 147.708 684.163 147.167 686.157 147.167C688.219 147.167 689.842 147.686 691.027 148.722C692.224 149.748 692.839 151.183 692.873 153.029V161.779C692.873 163.568 693.061 164.906 693.437 165.795V166H691.25ZM684.824 164.531C686.191 164.531 687.41 164.2 688.481 163.539C689.563 162.878 690.349 161.996 690.839 160.89V156.823H687.182C685.143 156.846 683.548 157.222 682.397 157.951C681.246 158.669 680.671 159.66 680.671 160.925C680.671 161.961 681.053 162.822 681.816 163.505C682.591 164.189 683.593 164.531 684.824 164.531ZM703.828 163.18L709.45 147.509H711.552L704.648 166H702.99L696.052 147.509H698.154L703.828 163.18ZM717.209 166H715.158V147.509H717.209V166ZM714.799 142.16C714.799 141.773 714.925 141.448 715.175 141.186C715.426 140.912 715.768 140.776 716.201 140.776C716.634 140.776 716.975 140.912 717.226 141.186C717.488 141.448 717.619 141.773 717.619 142.16C717.619 142.547 717.488 142.872 717.226 143.134C716.975 143.396 716.634 143.527 716.201 143.527C715.768 143.527 715.426 143.396 715.175 143.134C714.925 142.872 714.799 142.547 714.799 142.16ZM734.675 163.659C733.444 165.448 731.479 166.342 728.779 166.342C726.808 166.342 725.31 165.772 724.284 164.633C723.259 163.482 722.735 161.785 722.712 159.54V147.509H724.746V159.284C724.746 162.804 726.17 164.565 729.018 164.565C731.98 164.565 733.854 163.34 734.641 160.89V147.509H736.691V166H734.709L734.675 163.659ZM743.886 147.509L743.955 150.517C744.638 149.4 745.493 148.563 746.518 148.005C747.543 147.446 748.683 147.167 749.936 147.167C752.853 147.167 754.704 148.364 755.49 150.756C756.151 149.605 757.034 148.722 758.139 148.107C759.244 147.481 760.463 147.167 761.796 147.167C765.761 147.167 767.784 149.332 767.863 153.661V166H765.812V153.815C765.801 152.163 765.442 150.938 764.736 150.141C764.041 149.343 762.902 148.945 761.318 148.945C759.848 148.967 758.606 149.446 757.592 150.38C756.578 151.303 756.014 152.431 755.9 153.764V166H753.85V153.661C753.838 152.078 753.462 150.899 752.722 150.124C751.993 149.338 750.865 148.945 749.338 148.945C748.05 148.945 746.945 149.315 746.022 150.055C745.1 150.785 744.416 151.873 743.972 153.32V166H741.921V147.509H743.886ZM772.871 164.77C772.871 164.371 772.996 164.035 773.247 163.761C773.509 163.477 773.868 163.334 774.323 163.334C774.779 163.334 775.138 163.477 775.4 163.761C775.662 164.035 775.793 164.371 775.793 164.77C775.793 165.169 775.662 165.499 775.4 165.761C775.138 166.012 774.779 166.137 774.323 166.137C773.868 166.137 773.509 166.012 773.247 165.761C772.996 165.499 772.871 165.169 772.871 164.77ZM788.269 164.616C789.693 164.616 790.883 164.217 791.84 163.42C792.809 162.611 793.333 161.568 793.413 160.292H795.378C795.321 161.42 794.968 162.451 794.318 163.385C793.669 164.308 792.803 165.032 791.721 165.556C790.65 166.08 789.499 166.342 788.269 166.342C785.842 166.342 783.916 165.499 782.492 163.813C781.079 162.127 780.373 159.859 780.373 157.011V156.396C780.373 154.573 780.692 152.961 781.33 151.559C781.968 150.158 782.88 149.076 784.064 148.312C785.261 147.549 786.656 147.167 788.251 147.167C790.279 147.167 791.949 147.771 793.259 148.979C794.58 150.186 795.287 151.776 795.378 153.747H793.413C793.321 152.3 792.797 151.132 791.84 150.243C790.895 149.355 789.698 148.91 788.251 148.91C786.406 148.91 784.97 149.577 783.945 150.91C782.931 152.243 782.424 154.111 782.424 156.515V157.114C782.424 159.472 782.931 161.312 783.945 162.634C784.97 163.955 786.411 164.616 788.269 164.616ZM798.352 156.481C798.352 154.704 798.693 153.103 799.377 151.679C800.072 150.255 801.046 149.15 802.299 148.364C803.564 147.566 804.994 147.167 806.589 147.167C809.05 147.167 811.044 148.033 812.57 149.765C814.097 151.485 814.86 153.77 814.86 156.618V157.045C814.86 158.834 814.513 160.446 813.818 161.882C813.134 163.306 812.166 164.405 810.913 165.18C809.659 165.955 808.229 166.342 806.623 166.342C804.174 166.342 802.18 165.482 800.642 163.761C799.115 162.03 798.352 159.74 798.352 156.891V156.481ZM800.402 157.045C800.402 159.255 800.972 161.073 802.111 162.497C803.262 163.91 804.766 164.616 806.623 164.616C808.469 164.616 809.961 163.91 811.101 162.497C812.251 161.073 812.827 159.198 812.827 156.874V156.481C812.827 155.068 812.565 153.775 812.041 152.602C811.516 151.428 810.782 150.523 809.836 149.885C808.89 149.235 807.808 148.91 806.589 148.91C804.766 148.91 803.279 149.628 802.128 151.064C800.978 152.488 800.402 154.356 800.402 156.669V157.045Z" fill="#84E575"/>
<path d="M48.8774 160.362H41.4312L39.7588 165H37.3418L44.1289 147.227H46.1797L52.979 165H50.5742L48.8774 160.362ZM42.1392 158.433H48.1816L45.1543 150.12L42.1392 158.433ZM65.186 160.362H57.7397L56.0674 165H53.6504L60.4375 147.227H62.4883L69.2876 165H66.8828L65.186 160.362ZM58.4478 158.433H64.4902L61.4629 150.12L58.4478 158.433Z" fill="white"/>
<path d="M88.3525 21.4749C87.249 22.5588 85.96 23.1008 84.4854 23.1008C82.6006 23.1008 81.0918 22.4563 79.959 21.1672C78.8262 19.8684 78.2598 18.1204 78.2598 15.9231C78.2598 14.5266 78.5625 13.2473 79.168 12.0852C79.7832 10.9133 80.6377 10.0051 81.7314 9.3606C82.8252 8.7063 84.0557 8.37915 85.4229 8.37915C86.8291 8.37915 88.0791 8.73071 89.1729 9.43384C90.2666 10.137 91.1162 11.1477 91.7217 12.4661C92.3271 13.7844 92.6348 15.2932 92.6445 16.9924V18.5598C92.6445 22.1145 91.7607 24.9075 89.9932 26.9387C88.2256 28.97 85.7207 30.054 82.4785 30.1907L81.4385 30.2053V26.675L82.376 26.6604C86.0576 26.4944 88.0498 24.7659 88.3525 21.4749ZM85.5254 19.8635C86.209 19.8635 86.7949 19.6877 87.2832 19.3362C87.7812 18.9846 88.1572 18.5598 88.4111 18.0618V16.3186C88.4111 14.8831 88.1377 13.7698 87.5908 12.9788C87.0439 12.1877 86.3115 11.7922 85.3936 11.7922C84.5439 11.7922 83.8457 12.1829 83.2988 12.9641C82.752 13.7356 82.4785 14.7073 82.4785 15.8792C82.4785 17.0413 82.7422 17.9983 83.2695 18.7502C83.8066 19.4924 84.5586 19.8635 85.5254 19.8635ZM96.0576 27.9202C96.0576 27.2463 96.2822 26.6995 96.7314 26.2795C97.1904 25.8596 97.7617 25.6497 98.4453 25.6497C99.1387 25.6497 99.71 25.8596 100.159 26.2795C100.618 26.6995 100.848 27.2463 100.848 27.9202C100.848 28.5842 100.623 29.1262 100.174 29.5461C99.7246 29.9563 99.1484 30.1614 98.4453 30.1614C97.752 30.1614 97.1807 29.9563 96.7314 29.5461C96.2822 29.1262 96.0576 28.5842 96.0576 27.9202ZM96.0576 15.9231C96.0576 15.2493 96.2822 14.7024 96.7314 14.2825C97.1904 13.8625 97.7617 13.6526 98.4453 13.6526C99.1387 13.6526 99.71 13.8625 100.159 14.2825C100.618 14.7024 100.848 15.2493 100.848 15.9231C100.848 16.5872 100.623 17.1292 100.174 17.5491C99.7246 17.9592 99.1484 18.1643 98.4453 18.1643C97.752 18.1643 97.1807 17.9592 96.7314 17.5491C96.2822 17.1292 96.0576 16.5872 96.0576 15.9231ZM116.668 21.9729H119.085V25.386H116.668V30.0002H112.435V25.386H103.689L103.499 22.72L112.391 8.67212H116.668V21.9729ZM107.718 21.9729H112.435V14.4436L112.156 14.927L107.718 21.9729ZM131.653 30.0002H127.42V13.6819L122.366 15.2493V11.8069L131.199 8.64282H131.653V30.0002Z" fill="white"/>
<path fill-rule="evenodd" clip-rule="evenodd" d="M307.559 150.829V148.029C307.56 145.328 306.12 142.832 303.781 141.482C301.442 140.131 298.56 140.131 296.222 141.482C293.883 142.833 292.443 145.329 292.444 148.03V150.829H289.959V157.488C289.959 163.034 294.454 167.529 300 167.529C305.545 167.529 310.041 163.034 310.041 157.488V150.829H307.559ZM300.794 160.229V162.701H299.207V160.231C297.811 159.836 296.92 158.471 297.12 157.034C297.32 155.597 298.549 154.527 300 154.527C301.45 154.527 302.679 155.597 302.879 157.034C303.078 158.471 302.188 159.836 300.792 160.231L300.794 160.229ZM305.973 150.829H294.028V148.029C294.028 144.731 296.702 142.057 300 142.057C303.298 142.057 305.972 144.731 305.972 148.029L305.973 150.829Z" fill="#80E770"/>
</svg>
